<?xml version="1.0" standalone="no"?>
<!DOCTYPE svg PUBLIC "-//W3C//DTD SVG 20010904//EN"
 "http://www.w3.org/TR/2001/REC-SVG-20010904/DTD/svg10.dtd">
<svg version="1.0" xmlns="http://www.w3.org/2000/svg"
 width="512.000000pt" height="512.000000pt" viewBox="0 0 512.000000 512.000000"
 preserveAspectRatio="xMidYMid meet">
<metadata>
Created by potrace 1.11, written by Peter Selinger 2001-2013
</metadata>
<g transform="translate(0.000000,512.000000) scale(0.100000,-0.100000)"
fill="#000000" stroke="none">
<path d="M2369 5116 c-2 -2 -34 -6 -70 -10 -763 -71 -1490 -522 -1903 -1180
-214 -342 -339 -702 -384 -1106 -9 -85 -8 -458 1 -535 35 -277 95 -503 200
-745 44 -101 82 -177 126 -250 11 -19 29 -51 40 -70 30 -55 148 -217 221 -305
367 -437 882 -746 1435 -859 208 -43 287 -50 520 -51 164 0 238 4 365 20 82
10 269 51 367 81 830 251 1468 884 1722 1709 33 109 76 298 86 385 4 30 9 69
12 85 8 59 11 451 3 520 -16 136 -22 175 -35 235 -3 14 -10 46 -15 71 -26 130
-96 342 -165 498 -37 83 -49 107 -127 245 -129 229 -388 531 -588 686 -24 19
-53 43 -65 53 -21 19 -215 149 -275 184 -81 48 -282 143 -371 177 -172 64
-403 123 -554 141 -27 4 -61 9 -75 12 -28 5 -466 14 -471 9z m481 -315 c262
-38 470 -101 695 -211 231 -112 432 -256 615 -440 100 -100 107 -109 188 -211
249 -319 417 -737 459 -1141 15 -144 8 -453 -12 -573 -33 -191 -89 -394 -144
-520 -107 -243 -240 -461 -376 -614 -60 -69 -201 -209 -260 -258 -83 -70 -228
-173 -300 -213 -33 -18 -68 -40 -79 -49 -10 -9 -20 -15 -22 -14 -2 1 -41 -15
-86 -37 -212 -99 -435 -166 -678 -201 -94 -14 -419 -18 -520 -7 -500 57 -926
250 -1302 590 -66 60 -177 181 -272 298 -90 112 -233 368 -300 540 -39 101
-103 316 -111 375 -2 11 -11 65 -20 120 -26 149 -26 511 0 655 3 14 7 40 10
58 35 214 115 449 224 657 58 111 129 227 144 233 4 2 7 8 7 14 0 11 97 133
185 233 51 58 121 123 260 244 67 57 277 191 390 247 149 75 278 124 429 164
122 33 125 33 196 45 25 4 54 9 65 11 11 2 54 7 95 10 41 4 77 8 79 10 8 7
372 -5 441 -15z"/>
<path d="M1324 3156 c-79 -22 -118 -70 -117 -148 1 -40 7 -57 30 -86 37 -45
72 -58 188 -65 50 -4 99 -9 110 -11 242 -52 396 -133 564 -296 61 -60 161
-188 161 -207 0 -4 6 -14 14 -22 20 -24 82 -178 100 -246 22 -86 25 -110 32
-205 7 -107 18 -141 53 -173 70 -62 168 -51 225 26 18 24 21 44 22 122 1 83
-4 127 -30 271 -12 64 -70 222 -115 310 -175 343 -496 599 -870 694 -101 25
-121 29 -221 36 -47 3 -89 7 -95 8 -5 2 -28 -2 -51 -8z"/>
<path d="M3738 3165 c-2 -1 -41 -5 -87 -9 -304 -24 -590 -153 -817 -368 l-86
-83 27 -50 c15 -28 32 -55 37 -62 5 -6 26 -50 47 -97 l38 -86 39 47 c126 155
290 274 464 338 41 15 84 29 95 32 62 15 188 33 238 33 73 0 117 19 152 64 46
61 35 156 -25 204 -24 18 -112 45 -122 37z"/>
</g>
</svg>
